<?xml version="1.0" standalone="no"?>
<!DOCTYPE svg PUBLIC "-//W3C//DTD SVG 20010904//EN"
 "http://www.w3.org/TR/2001/REC-SVG-20010904/DTD/svg10.dtd">
<svg version="1.0" xmlns="http://www.w3.org/2000/svg"
 width="96.000000pt" height="96.000000pt" viewBox="0 0 96.000000 96.000000"
 preserveAspectRatio="xMidYMid meet">
<metadata>
Created by potrace 1.11, written by Peter Selinger 2001-2013
</metadata>
<g transform="translate(0.000000,96.000000) scale(0.100000,-0.100000)"
fill="#000000" stroke="none">
<path d="M206 770 c-165 -156 -166 -412 -1 -576 30 -31 60 -54 66 -52 6 2 18
16 27 30 16 27 16 28 -33 75 -135 134 -138 333 -5 464 15 15 35 31 44 36 16 9
16 11 -1 41 -10 18 -24 32 -31 32 -7 0 -37 -22 -66 -50z"/>
<path d="M659 792 c-15 -27 -15 -28 36 -77 73 -72 99 -131 99 -230 1 -99 -27
-167 -99 -238 -49 -47 -49 -48 -33 -75 9 -14 21 -28 27 -30 21 -7 122 107 154
175 27 59 32 80 33 153 3 128 -41 228 -135 313 -49 44 -61 46 -82 9z"/>
<path d="M313 648 c-93 -99 -96 -230 -7 -326 l44 -47 20 25 c26 33 25 36 -9
76 -56 63 -49 165 15 225 23 21 23 23 7 50 -22 37 -32 36 -70 -3z"/>
<path d="M577 651 c-16 -27 -16 -29 7 -50 64 -60 71 -162 15 -225 -34 -40 -35
-43 -9 -76 l20 -25 43 46 c90 97 88 230 -6 327 -38 39 -48 40 -70 3z"/>
<path d="M426 535 c-34 -37 -34 -79 0 -110 15 -14 39 -25 54 -25 15 0 39 11
54 25 50 46 25 120 -46 132 -31 5 -40 1 -62 -22z"/>
</g>
</svg>
